<svg xmlns="http://www.w3.org/2000/svg" width="30.849" height="28.92" viewBox="0 0 30.849 28.92">
  <path id="Icon_metro-cart" data-name="Icon metro-cart" d="M14.139,29.885a2.892,2.892,0,1,1-2.892-2.892,2.892,2.892,0,0,1,2.892,2.892Zm19.28,0a2.892,2.892,0,1,1-2.892-2.892A2.892,2.892,0,0,1,33.419,29.885Zm0-12.532V5.784H10.283A1.928,1.928,0,0,0,8.355,3.856H2.571V5.784H6.427L7.875,18.2a3.855,3.855,0,0,0,2.408,6.867H33.419V23.136H10.283a1.928,1.928,0,0,1-1.928-1.928c0-.007,0-.013,0-.02l25.064-3.836Z" transform="translate(-2.571 -3.856)" fill="#ae3336"/>
</svg>
