<?xml version="1.0" encoding="UTF-8"?>
<!DOCTYPE svg PUBLIC "-//W3C//DTD SVG 1.0//EN" "http://www.w3.org/TR/2001/REC-SVG-20010904/DTD/svg10.dtd">
<!-- Creator: CorelDRAW X7 -->
<svg xmlns="http://www.w3.org/2000/svg" xml:space="preserve" width="2.21333in" height="1.41002in" version="1.0" style="shape-rendering:geometricPrecision; text-rendering:geometricPrecision; image-rendering:optimizeQuality; fill-rule:evenodd; clip-rule:evenodd"
viewBox="0 0 2213 1410"
 xmlns:xlink="http://www.w3.org/1999/xlink">
 <defs>
  <style type="text/css">
   <![CDATA[
    .str0 {stroke:#AE3336;stroke-width:6.66537}
    .fil3 {fill:#AE3336}
    .fil0 {fill:#AE3336}
    .fil2 {fill:#373435;fill-rule:nonzero}
    .fil1 {fill:#AE3336;fill-rule:nonzero}
   ]]>
  </style>
 </defs>
 <g id="Layer_x0020_1">
  <metadata id="CorelCorpID_0Corel-Layer"/>
  <g id="_2241116536208">
   <path class="fil0" d="M1014 285c28,-6 37,-35 79,-8 -3,52 -109,53 -155,9 -47,-44 -33,-113 3,-162 66,-92 206,-130 310,-30 99,97 84,223 -7,308 -37,35 -87,60 -133,92 -82,57 -23,85 -143,89 -52,59 -2,62 -145,65 -172,3 -761,64 -818,239 -39,120 156,158 260,139 83,-31 65,-60 60,-65 -9,-13 -7,-15 -7,-15 -6,10 -15,42 -83,46 -7,0 5,0 -4,0 -186,10 -278,-85 -132,-172 180,-108 794,-122 1009,-121 215,2 834,12 1009,122 37,24 107,86 44,133 -11,9 -24,16 -39,21 -132,53 -164,0 -226,66 -3,4 4,8 0,12 95,-75 137,-6 238,-46 52,-21 89,-57 77,-109 -45,-192 -629,-239 -813,-250 -80,-5 -126,5 -149,-66 -37,1 -109,13 -91,-35 10,-26 47,-61 63,-78 43,-44 93,-80 116,-165 46,-172 -79,-305 -239,-304 -83,1 -154,42 -187,89 -40,56 -67,148 -20,214 33,47 126,88 201,42 57,-35 30,-121 -47,-97 -20,6 -32,16 -31,37z"/>
   <path class="fil1" d="M315 958c4,-19 12,-34 24,-45 11,-9 25,-16 43,-18 16,-3 34,-3 54,-1 20,3 41,6 62,9l24 4 9 -12c14,-15 28,-28 42,-39 15,-11 29,-19 43,-23 7,-3 13,-4 18,-4 6,0 10,0 14,1 5,1 8,2 11,4 2,2 5,3 6,5 5,4 9,10 10,17 2,7 2,14 0,21 -3,8 -8,16 -16,24 -9,7 -19,12 -32,14 -12,2 -25,3 -38,3 -13,0 -27,-1 -41,-3 -13,17 -24,36 -34,56 -10,19 -18,40 -25,62 -10,36 -13,67 -8,91 2,10 5,19 9,24 4,6 8,10 14,13 5,2 11,3 18,2 7,-1 15,-3 23,-7 12,-4 25,-12 37,-21 13,-10 25,-20 36,-31 11,-11 20,-21 29,-31 8,-10 14,-18 18,-24 1,-4 3,-7 6,-9 3,-2 7,-4 10,-5 3,-1 6,-1 10,-1 3,0 5,-1 7,-1 -4,25 -9,51 -16,77 -6,26 -14,52 -23,77 -10,25 -20,49 -32,73 -12,23 -26,44 -40,64 -26,33 -53,57 -82,70 -17,9 -33,13 -48,13 -13,0 -24,-3 -35,-8 -14,-7 -23,-17 -27,-29 -4,-11 -4,-23 1,-38 2,-8 6,-17 11,-26 6,-8 12,-17 19,-26 8,-8 16,-17 25,-25 9,-9 19,-17 30,-24 10,-7 21,-14 32,-19 10,-6 21,-11 31,-14 22,-8 43,-11 61,-7 1,0 2,1 1,2 0,2 0,3 -2,2 -16,-3 -35,-1 -56,6 -21,7 -43,18 -64,34 -21,14 -39,30 -54,48 -15,17 -25,34 -30,50 -5,17 -6,30 -1,39 5,10 13,16 24,18 10,3 22,3 35,0 14,-3 26,-8 37,-16 22,-14 42,-34 61,-59 15,-19 27,-40 38,-62 12,-22 21,-44 30,-66 8,-23 15,-45 22,-67 6,-21 11,-41 16,-59 -6,7 -13,15 -21,25 -8,10 -18,19 -28,29 -10,10 -21,19 -33,27 -11,8 -23,15 -34,19 -13,5 -27,8 -40,8 -4,0 -8,0 -12,-1 -4,0 -8,-1 -12,-3 -8,-2 -15,-7 -20,-14 -6,-7 -10,-16 -12,-27 -6,-25 -3,-55 8,-92 7,-23 15,-45 25,-65 10,-20 22,-39 36,-56l-21 -4c-21,-3 -40,-6 -59,-8 -19,-2 -37,-2 -52,0 -16,1 -30,6 -41,14 -12,8 -20,21 -25,39 1,0 1,-1 2,-1 2,0 5,1 6,3 2,2 3,4 3,6 0,2 -1,4 -3,6 -1,1 -4,2 -6,2 -5,0 -8,-3 -8,-10zm355 -82c2,-7 2,-13 1,-19 -2,-6 -4,-11 -9,-15 -4,-4 -9,-6 -14,-7 -6,0 -12,1 -18,4 -6,2 -12,6 -19,11 -6,4 -12,9 -18,15 -6,5 -12,11 -17,16 -5,6 -10,11 -14,15 -2,3 -4,5 -6,8 -2,2 -3,5 -5,7 13,2 26,2 39,3 13,0 25,-1 36,-3 11,-3 21,-7 29,-13 8,-6 13,-14 15,-22zm-8 319c-1,-1 -2,-2 -2,-3 0,-1 1,-1 3,-1 26,0 50,-16 72,-48 6,-9 12,-18 18,-28 6,-11 11,-20 16,-30 5,-9 9,-18 13,-25 4,-7 6,-13 8,-16 1,-1 2,-2 3,-1 1,1 2,2 1,4 -4,5 -8,12 -12,20 -3,8 -8,17 -12,25 -5,9 -10,18 -15,27 -5,10 -11,18 -17,27 -10,14 -21,26 -34,35 -12,9 -26,14 -42,14z"/>
   <path id="1" class="fil1" d="M880 1196c-7,-1 -13,-4 -17,-9 -4,-5 -6,-12 -7,-20 -1,-8 -1,-17 1,-28 1,-10 4,-22 8,-34 1,-2 1,-5 2,-6 0,-2 1,-4 2,-6 -3,4 -5,8 -8,11 -4,7 -9,13 -13,18 -5,5 -9,9 -13,13 -7,6 -14,9 -20,10 -7,1 -13,-1 -18,-4 -5,-4 -9,-9 -13,-16 -3,-7 -5,-15 -6,-24 -1,-9 0,-20 3,-31 3,-11 7,-22 12,-33 4,-7 9,-15 14,-21 5,-7 10,-13 16,-17 6,-5 12,-9 19,-12 7,-2 14,-3 21,-3 6,0 11,2 16,5 4,4 7,8 8,13 1,3 2,7 1,10 0,4 -1,8 -2,11 -1,3 -3,6 -6,8 -3,2 -7,3 -11,4 -2,0 -4,-1 -6,-2 -1,-2 -2,-4 -2,-6 0,-3 1,-5 2,-6 2,-2 4,-3 6,-3 3,0 5,1 6,3 2,1 3,3 3,6l-1 0c1,-1 3,-2 4,-4 3,-5 4,-10 3,-15 -1,-4 -2,-7 -4,-10 -2,-3 -5,-4 -10,-5 -5,-1 -11,2 -18,8 -6,7 -13,15 -19,25 -7,10 -12,22 -18,34 -5,13 -9,24 -12,35 -2,11 -3,21 -3,29 1,8 4,12 9,14 6,2 13,0 22,-6 8,-7 17,-17 26,-31 5,-7 10,-15 14,-22 4,-6 7,-12 9,-16 3,-5 4,-9 6,-11 2,-3 3,-5 3,-7 3,-4 6,-7 10,-9 4,-1 7,-2 11,-2 4,0 7,0 11,1 3,1 5,1 6,2 0,0 -1,2 -3,6 -2,3 -4,9 -7,15 -3,6 -6,14 -10,22 -3,8 -6,17 -10,26 -9,25 -14,45 -15,58 -1,13 2,20 7,23 5,2 11,0 20,-6 8,-6 18,-16 28,-29 13,-16 24,-31 33,-46 10,-15 19,-30 29,-45 1,-3 3,-6 5,-9 2,-3 3,-5 5,-8 0,-1 1,-1 3,-1 1,1 1,2 0,4l-10 16c-9,15 -18,30 -27,45 -9,15 -20,30 -33,46 -4,5 -9,10 -13,16 -5,5 -10,10 -15,14 -5,4 -11,7 -16,10 -6,2 -12,3 -18,2z"/>
   <path id="2" class="fil1" d="M1007 1169c-9,-1 -16,-4 -20,-10 -4,-5 -6,-12 -7,-19 -1,-8 0,-16 2,-25 2,-9 4,-18 7,-27 3,-9 7,-17 10,-25 3,-7 6,-13 9,-18 2,-4 5,-7 9,-9 4,-1 8,-2 11,-2 4,0 8,0 11,1 3,1 5,1 6,2 -1,2 -3,7 -6,13 -3,7 -6,15 -10,23 -3,9 -7,18 -10,28 -4,9 -7,18 -8,27 -2,8 -3,15 -2,21 0,6 2,9 7,11 4,1 8,1 13,-2 5,-3 9,-7 14,-13 5,-5 10,-11 15,-19 5,-7 10,-15 15,-23 4,-8 9,-16 13,-24 4,-7 7,-14 10,-20l8 -14c2,-4 5,-7 9,-9 4,-1 7,-2 11,-2 4,0 7,0 11,1 3,1 5,1 6,2 0,0 -1,2 -3,6 -2,3 -4,9 -7,15 -3,6 -6,14 -10,22 -3,8 -6,17 -10,26 -9,25 -14,45 -15,58 -1,13 2,20 7,23 5,2 11,0 20,-6 8,-6 18,-16 28,-29 13,-16 24,-31 34,-46 9,-15 18,-30 28,-45 1,-3 3,-6 5,-9 2,-3 3,-5 5,-8 0,-1 1,-1 3,-1 1,1 1,2 0,4l-10 16c-9,15 -18,30 -27,45 -9,15 -20,30 -33,46 -4,5 -9,10 -13,16 -5,5 -10,10 -15,14 -5,4 -11,7 -16,10 -6,2 -12,3 -18,2 -7,-1 -13,-4 -17,-9 -4,-5 -6,-12 -7,-20 -1,-8 -1,-17 1,-28 1,-10 4,-22 8,-34l3 -9c-5,9 -11,18 -17,27 -5,10 -11,18 -18,25 -6,7 -13,13 -19,17 -7,4 -14,5 -21,4z"/>
   <path id="3" class="fil1" d="M1270 1196c-8,-1 -13,-4 -17,-9 -4,-5 -7,-12 -8,-20 -1,-8 0,-17 1,-28 2,-10 5,-22 9,-34 4,-15 8,-27 12,-35 4,-9 7,-16 9,-20 -3,1 -6,1 -9,1 -3,0 -6,0 -9,0 -12,0 -21,-1 -29,-4 -15,-6 -26,-17 -33,-34 -3,-8 -5,-16 -5,-24 -1,-8 1,-15 4,-20 3,-4 7,-7 11,-7 4,0 8,1 12,3 3,2 6,5 8,9 6,7 9,17 10,30 0,10 -2,21 -6,32 7,7 15,10 23,11 8,0 17,0 26,-2 2,-4 6,-7 9,-9 4,-1 8,-2 12,-2 3,0 7,0 10,1 3,1 5,1 6,2 0,0 -1,2 -2,6 -2,3 -5,9 -7,15 -3,6 -7,14 -10,22 -4,8 -7,17 -10,26 -10,25 -15,45 -15,58 -1,13 1,20 7,23 4,2 11,0 19,-6 9,-6 18,-16 29,-29 12,-16 23,-31 33,-46 10,-15 19,-30 28,-45 2,-3 4,-6 5,-9 2,-3 4,-5 5,-8 1,-1 2,-1 4,-1 1,1 1,2 0,4l-10 16c-9,15 -18,30 -27,45 -9,15 -20,30 -33,46 -5,5 -9,10 -14,16 -4,5 -9,10 -14,14 -6,4 -11,7 -17,10 -6,2 -11,3 -17,2zm-47 -217c-3,-4 -5,-6 -6,-7 -2,0 -3,0 -5,2 -1,1 -2,3 -2,6 -1,3 -1,7 -1,10 -1,4 0,7 1,11 1,5 2,9 4,13 3,9 7,16 12,21 5,-12 6,-22 5,-32 -1,-10 -4,-18 -8,-24z"/>
   <path id="4" class="fil1" d="M1388 1196c-7,-1 -13,-4 -17,-9 -4,-5 -6,-12 -7,-20 -1,-8 -1,-17 1,-28 1,-10 4,-22 8,-34 6,-19 11,-33 16,-42 4,-9 7,-15 8,-18 3,-4 6,-7 10,-9 4,-1 7,-2 11,-2 4,0 7,0 10,1 4,1 6,1 7,2 0,0 -1,2 -3,6 -2,3 -4,9 -7,15 -3,6 -6,14 -10,22 -3,8 -7,17 -10,26 -9,25 -14,45 -15,58 -1,13 2,20 7,23 5,2 11,0 19,-6 9,-6 18,-16 29,-29 13,-16 24,-31 33,-46 10,-15 19,-30 29,-45 1,-3 3,-6 5,-9 2,-3 3,-5 5,-8 0,-1 1,-1 3,-1 1,1 1,2 0,4l-10 16c-9,15 -18,30 -27,45 -9,15 -20,30 -33,46 -4,5 -9,10 -13,16 -5,5 -10,10 -15,14 -5,4 -11,7 -16,10 -6,2 -12,3 -18,2zm27 -214c1,-5 4,-9 8,-12 5,-3 9,-5 13,-5 5,0 9,2 11,5 2,3 2,7 1,12 -2,5 -5,9 -9,12 -4,3 -9,5 -13,5 -5,0 -8,-2 -10,-5 -3,-3 -3,-7 -1,-12z"/>
   <path id="5" class="fil1" d="M1684 1043c1,1 2,2 1,3 -5,8 -11,17 -18,28 -7,10 -14,21 -22,32 -9,11 -17,22 -26,32 -10,10 -19,19 -29,27 -12,8 -24,13 -35,15 -12,1 -22,0 -31,-5 -8,-5 -15,-13 -20,-24 -6,-11 -8,-24 -7,-40 1,-16 5,-32 11,-50 7,-17 15,-33 25,-47 11,-15 22,-26 35,-35 13,-10 27,-14 41,-13 4,1 7,1 10,3 3,1 5,3 7,5 2,4 3,8 1,12 0,0 0,0 0,0 -1,2 -2,4 -3,5 -2,1 -3,1 -5,1 -3,0 -5,-1 -6,-2 -2,-2 -2,-4 -2,-6 0,-2 0,-4 2,-6 1,-2 3,-3 6,-3 1,0 1,1 2,1 -2,-2 -3,-3 -5,-3 -2,-1 -4,-1 -6,0 -6,0 -13,5 -21,15 -8,9 -16,21 -24,35 -8,14 -16,29 -22,46 -7,16 -12,32 -15,46 -3,15 -4,28 -3,38 2,11 7,17 16,20 7,2 14,2 22,-1 8,-3 15,-7 24,-12 9,-7 19,-16 29,-27 9,-10 18,-21 27,-33 8,-11 15,-22 22,-32 7,-10 12,-18 16,-24 1,-1 2,-2 3,-1z"/>
   <path id="6" class="fil1" d="M1896 1043c2,1 2,1 2,3 0,0 -1,1 -1,3 -1,2 -2,6 -4,11 -1,5 -4,11 -7,20 -3,8 -7,19 -12,31 -6,16 -12,29 -18,41 -5,12 -11,22 -16,31 -2,3 -4,7 -7,11 -3,4 -6,7 -9,10 -4,4 -7,7 -11,9 -4,2 -8,4 -11,4 -7,0 -11,-1 -15,-4 -4,-2 -6,-5 -8,-8 -2,-4 -4,-8 -5,-12 -1,-5 -2,-9 -2,-14 -1,-5 -2,-10 -3,-15 -1,-6 -3,-10 -6,-14 -3,-6 -7,-9 -12,-10 -5,-2 -10,-3 -15,-4l-3 0c-1,0 -2,0 -2,-2 0,-1 1,-2 2,-2l3 0c10,-1 19,-4 27,-11 8,-7 15,-15 20,-23 4,-5 6,-12 9,-20 2,-8 1,-16 -2,-25 -2,-6 -5,-9 -8,-10 -3,-1 -7,-1 -11,1 -3,1 -8,4 -12,8 -4,3 -8,7 -12,11 -11,12 -22,24 -32,38 -10,15 -21,33 -31,54 -1,2 -2,3 -2,4 -2,4 -6,7 -12,9 -7,2 -14,2 -24,-2 0,0 1,-5 4,-15 2,-10 6,-24 10,-40 5,-17 10,-35 16,-56 6,-21 13,-42 19,-63 8,-25 16,-47 23,-67 7,-19 14,-36 20,-49 17,-36 31,-53 42,-50 9,2 14,8 16,17 2,9 1,22 -3,38 -4,16 -10,34 -19,53 -8,18 -17,34 -26,48 -9,13 -18,23 -25,29 0,0 -1,0 -1,0 -4,12 -7,24 -11,36 -3,12 -6,24 -9,35 -3,11 -5,21 -8,31 -2,9 -4,17 -6,24 10,-17 19,-32 27,-44 9,-12 18,-23 28,-33 20,-19 38,-29 53,-28 12,1 20,7 25,19 6,15 4,29 -6,42 -4,5 -8,10 -13,14 -6,5 -11,8 -17,12 -5,3 -11,6 -17,9 -6,2 -11,4 -16,6 12,1 22,7 29,17 4,5 7,11 9,16 3,6 5,12 7,17 6,17 11,25 16,24 5,-2 13,-11 23,-27 5,-9 10,-19 16,-31 6,-11 12,-25 18,-40 5,-13 9,-23 12,-32 3,-8 6,-15 7,-20 2,-4 3,-8 3,-10 1,-2 1,-3 1,-3 1,-2 2,-3 3,-2zm-126 -111c9,-19 15,-36 19,-51 3,-16 4,-28 2,-37 0,-1 0,-2 -1,-3 -9,11 -19,30 -30,58 -11,27 -23,62 -36,105 6,-6 14,-16 23,-29 8,-13 16,-27 23,-43z"/>
   <path class="fil2" d="M746 1390c0,8 -4,11 -11,11l-58 0 0 -140 58 0c7,0 10,4 10,11l0 38c0,5 -1,9 -4,11 -1,1 -4,3 -11,7 7,5 11,7 11,7 4,3 5,7 5,12l0 43zm-21 -77l0 -34 -27 0 0 41 16 0 11 -7zm0 71l0 -40 -10 -7 -17 0 0 47 27 0z"/>
   <path id="1" class="fil2" d="M913 1390c-1,8 -4,11 -12,11l-48 0c-7,0 -11,-3 -11,-11l0 -118c0,-7 4,-11 11,-11l48 0c8,0 11,4 12,11l0 118zm-21 -7l0 -104 -29 0 0 104 29 0z"/>
   <path id="2" class="fil2" d="M1079 1390c0,8 -4,11 -11,11l-48 0c-8,0 -11,-3 -11,-11l0 -129 21 0 0 122 28 0 0 -122 21 0 0 129z"/>
   <polygon id="3" class="fil2" points="1236,1280 1213,1280 1213,1401 1192,1401 1192,1280 1169,1280 1169,1261 1236,1261 "/>
   <polygon id="4" class="fil2" points="1347,1401 1326,1401 1326,1261 1347,1261 "/>
   <path id="5" class="fil2" d="M1524 1402l-2 0 -9 -8c-2,5 -5,7 -10,7l-48 0c-8,0 -11,-3 -11,-11l0 -118c0,-7 3,-11 11,-11l48 0c8,0 11,4 11,11l0 103 10 7 0 20zm-31 -19l0 -5 -12 -9 0 -19 1 0 11 8 0 -79 -28 0 0 104 28 0z"/>
   <path id="6" class="fil2" d="M1683 1390c0,8 -3,11 -11,11l-48 0c-7,0 -11,-3 -11,-11l0 -129 21 0 0 122 28 0 0 -122 21 0 0 129z"/>
   <polygon id="7" class="fil2" points="1838,1401 1779,1401 1779,1261 1837,1261 1837,1280 1800,1280 1800,1321 1832,1321 1832,1339 1800,1339 1800,1383 1838,1383 "/>
   <path class="fil3 str0" d="M315 958c4,-19 12,-34 24,-45 11,-9 25,-16 43,-18 16,-3 34,-3 54,-1 20,3 41,6 62,9l24 4 9 -12c14,-15 28,-28 42,-39 15,-11 29,-19 43,-23 7,-3 13,-4 18,-4 6,0 10,0 14,1 5,1 8,2 11,4 2,2 5,3 6,5 5,4 9,10 10,17 2,7 2,14 0,21 -3,8 -8,16 -16,24 -9,7 -19,12 -32,14 -12,2 -25,3 -38,3 -13,0 -27,-1 -41,-3 -13,17 -24,36 -34,56 -10,19 -18,40 -25,62 -10,36 -13,66 -8,91 2,10 5,19 9,24 4,6 8,10 14,13 5,2 11,3 18,2 7,-1 15,-3 23,-7 12,-4 25,-12 37,-21 13,-10 25,-20 36,-31 11,-11 20,-21 29,-31 8,-10 14,-18 18,-24 1,-4 3,-7 6,-9 3,-2 7,-4 10,-5 3,-1 6,-1 10,-1 3,0 5,-1 7,-1 -4,25 -9,51 -16,77 -6,26 -14,52 -23,77 -10,25 -20,49 -32,73 -12,23 -26,44 -40,64 -26,33 -53,57 -82,70 -17,9 -33,13 -48,13 -13,0 -24,-3 -35,-8 -14,-7 -23,-17 -27,-29 -4,-11 -4,-23 1,-38 2,-8 6,-17 11,-26 6,-8 12,-17 19,-26 8,-8 16,-17 25,-25 9,-9 19,-17 30,-24 10,-7 21,-14 32,-19 10,-6 21,-11 31,-14 22,-8 43,-11 61,-7 2,0 2,1 2,2 0,2 -1,3 -3,2 -16,-3 -35,-1 -56,6 -21,7 -43,18 -64,34 -21,14 -39,30 -54,48 -15,17 -25,34 -30,50 -5,17 -6,30 -1,39 5,10 13,16 24,18 10,3 22,3 35,0 14,-3 26,-8 37,-16 22,-14 42,-34 61,-59 15,-19 27,-40 38,-62 12,-22 21,-44 30,-66 8,-23 15,-45 22,-67 6,-21 11,-41 16,-59 -6,7 -13,15 -21,25 -8,10 -18,19 -28,29 -10,10 -21,19 -33,27 -11,8 -23,15 -34,19 -13,5 -27,8 -40,8 -4,0 -8,0 -12,-1 -4,0 -8,-1 -12,-3 -8,-2 -15,-7 -20,-14 -6,-7 -10,-16 -12,-27 -6,-25 -3,-55 8,-92 7,-23 15,-45 25,-65 11,-20 22,-39 36,-56l-21 -4c-21,-3 -40,-6 -59,-8 -19,-2 -37,-2 -52,0 -16,1 -30,6 -41,14 -12,8 -20,21 -25,39 1,0 1,-1 2,-1 2,0 5,1 6,3 2,2 3,4 3,6 0,2 -1,4 -3,6 -1,1 -4,2 -6,2 -5,0 -8,-3 -8,-10zm355 -82c2,-7 2,-13 1,-19 -2,-6 -4,-11 -9,-15 -4,-4 -9,-6 -14,-7 -6,0 -12,1 -18,4 -6,2 -12,6 -19,11 -6,4 -12,9 -18,15 -6,5 -12,11 -17,16 -5,6 -10,11 -14,15 -2,3 -4,5 -6,8 -2,2 -3,5 -5,7 13,1 26,2 39,3 13,0 25,-1 36,-3 11,-3 21,-7 29,-13 8,-6 13,-14 15,-22zm-8 319c-1,-1 -2,-2 -2,-3 0,-1 1,-1 3,-1 26,0 50,-16 72,-48 6,-9 12,-18 18,-28 6,-11 11,-20 16,-30 5,-9 9,-18 13,-25 4,-7 6,-13 8,-16 1,-1 2,-2 3,-1 1,1 2,2 1,4 -4,5 -8,12 -12,20 -3,8 -8,17 -12,25 -5,9 -10,18 -15,27 -5,10 -11,18 -17,27 -10,14 -21,26 -34,35 -12,9 -26,14 -42,14zm218 1c-7,-1 -13,-4 -17,-9 -4,-5 -6,-12 -7,-20 -1,-8 -1,-17 1,-28 1,-10 4,-22 8,-34 1,-2 1,-5 2,-6 0,-2 1,-4 2,-6 -3,4 -5,8 -8,11 -4,7 -9,13 -13,18 -5,5 -9,9 -13,13 -7,6 -14,9 -20,10 -7,1 -13,-1 -18,-4 -5,-4 -9,-9 -13,-16 -3,-7 -5,-15 -6,-24 -1,-9 0,-20 3,-31 3,-11 7,-22 12,-33 4,-7 9,-15 14,-21 5,-7 10,-13 16,-17 6,-5 12,-9 19,-12 7,-2 14,-3 21,-3 6,0 11,2 16,5 4,4 7,8 8,13 1,3 2,7 1,10 0,4 -1,8 -2,11 -1,3 -3,6 -6,8 -3,2 -7,3 -11,4 -2,0 -4,-1 -6,-2 -1,-2 -2,-4 -2,-6 0,-3 1,-5 2,-6 2,-2 4,-3 6,-3 3,0 5,1 6,3 2,1 3,3 3,6l-1 0c1,-1 3,-2 4,-4 3,-5 4,-10 3,-15 -1,-4 -2,-7 -4,-10 -2,-3 -5,-4 -10,-5 -5,-1 -11,2 -18,8 -6,7 -13,15 -19,25 -7,10 -12,22 -18,34 -5,13 -9,24 -12,35 -2,11 -3,21 -3,29 1,8 4,12 9,14 6,2 13,0 22,-6 8,-7 17,-17 26,-31 5,-7 10,-15 14,-22 4,-6 7,-12 9,-16 3,-5 4,-9 6,-11 2,-3 3,-5 4,-7 2,-4 5,-7 9,-9 4,-1 7,-2 11,-2 4,0 7,0 11,1 3,1 5,1 6,2 0,0 -1,2 -3,6 -2,3 -4,9 -7,15 -3,6 -6,14 -10,22 -3,8 -6,17 -10,26 -9,25 -14,45 -15,58 -1,13 2,20 7,23 5,2 11,0 20,-6 8,-6 18,-16 28,-29 13,-16 24,-31 33,-46 10,-15 19,-30 29,-45 1,-3 3,-6 5,-9 2,-3 3,-5 5,-8 0,-1 1,-1 3,-1 1,1 1,2 0,4l-10 16c-9,15 -18,30 -27,45 -9,15 -20,30 -33,46 -4,5 -9,10 -13,16 -5,5 -10,10 -15,14 -5,4 -11,7 -16,10 -6,2 -12,3 -18,2zm127 -27c-9,-1 -16,-4 -20,-10 -4,-5 -6,-12 -7,-19 -1,-8 0,-16 2,-25 2,-9 4,-18 7,-27 3,-9 7,-17 10,-25 4,-7 6,-13 9,-18 2,-4 5,-7 9,-9 4,-1 8,-2 11,-2 4,0 8,0 11,1 3,1 5,1 6,2 -1,2 -3,7 -6,13 -3,7 -6,15 -10,23 -3,9 -7,18 -10,28 -4,9 -7,18 -8,27 -2,8 -3,15 -2,21 0,6 2,9 7,11 4,1 8,1 13,-2 5,-3 9,-7 14,-13 5,-5 10,-11 15,-19 5,-7 10,-15 15,-23 4,-8 9,-16 13,-24 4,-7 7,-14 10,-20l8 -14c2,-4 5,-7 9,-9 4,-1 7,-2 11,-2 4,0 7,0 11,1 3,1 5,1 6,2 0,0 -1,2 -3,6 -2,3 -4,9 -7,15 -3,6 -6,14 -10,22 -3,8 -6,17 -10,26 -9,25 -14,45 -15,58 -1,13 2,20 7,23 5,2 11,0 20,-6 8,-6 18,-16 28,-29 13,-16 24,-31 34,-46 9,-15 18,-30 28,-45 1,-3 3,-6 5,-9 2,-3 3,-5 5,-8 0,-1 1,-1 3,-1 1,1 1,2 0,4l-10 16c-9,15 -18,30 -27,45 -9,15 -20,30 -33,46 -4,5 -9,10 -13,16 -5,5 -10,10 -15,14 -5,4 -11,7 -16,10 -6,2 -12,3 -18,2 -7,-1 -13,-4 -17,-9 -4,-5 -6,-12 -7,-20 -1,-8 -1,-17 1,-28 1,-10 4,-22 8,-34l3 -9c-5,9 -11,18 -17,27 -5,10 -11,18 -18,25 -6,7 -13,13 -19,17 -7,4 -14,5 -21,4zm263 27c-8,-1 -13,-4 -17,-9 -4,-5 -7,-12 -8,-20 -1,-8 0,-17 1,-28 2,-10 5,-22 9,-34 4,-15 8,-27 12,-35 4,-9 7,-16 9,-20 -3,1 -6,1 -9,1 -3,0 -6,0 -9,0 -12,0 -21,-1 -29,-4 -15,-6 -26,-17 -33,-34 -3,-8 -5,-16 -5,-24 -1,-8 1,-15 4,-20 3,-4 7,-7 11,-7 4,0 8,1 12,3 3,2 6,5 8,9 6,7 9,17 10,30 0,10 -2,21 -6,32 7,7 15,10 23,11 8,0 17,0 26,-2 2,-4 6,-7 9,-9 4,-1 8,-2 12,-2 3,0 7,0 10,1 3,1 5,1 6,2 0,0 -1,2 -2,6 -2,3 -5,9 -7,15 -3,6 -7,14 -10,22 -3,8 -7,17 -10,26 -10,25 -15,45 -15,58 -1,13 1,20 7,23 4,2 11,0 19,-6 9,-6 18,-16 29,-29 12,-16 23,-31 33,-46 10,-15 19,-30 28,-45 2,-3 4,-6 5,-9 2,-3 4,-5 5,-8 1,-1 2,-1 4,-1 1,1 1,2 0,4l-10 16c-9,15 -18,30 -27,45 -9,15 -20,30 -33,46 -5,5 -9,10 -14,16 -4,5 -9,10 -14,14 -6,4 -11,7 -17,10 -6,2 -11,3 -17,2zm-47 -217c-3,-4 -5,-6 -6,-7 -2,0 -3,0 -5,2 -1,1 -2,3 -2,6 -1,3 -1,7 -1,10 -1,4 0,7 1,11 1,5 2,9 4,13 3,9 7,16 12,21 5,-12 6,-22 5,-32 -1,-10 -4,-18 -8,-24zm165 217c-7,-1 -13,-4 -17,-9 -4,-5 -6,-12 -7,-20 -1,-8 -1,-17 1,-28 1,-10 4,-22 8,-34 6,-19 11,-33 16,-42 4,-9 7,-15 8,-18 3,-4 6,-7 10,-9 4,-1 7,-2 11,-2 4,0 7,0 10,1 4,1 6,1 7,2 0,0 -1,2 -3,6 -2,3 -4,9 -7,15 -3,6 -6,14 -10,22 -3,8 -7,17 -10,26 -9,25 -14,45 -15,58 -1,13 2,20 7,23 5,2 11,0 19,-6 9,-6 18,-16 29,-29 13,-16 24,-31 33,-46 10,-15 19,-30 29,-45 1,-3 3,-6 5,-9 2,-3 3,-5 5,-8 0,-1 1,-1 3,-1 1,1 1,2 0,4l-10 16c-9,15 -18,30 -27,45 -9,15 -20,30 -33,46 -4,5 -9,10 -13,16 -5,5 -10,10 -15,14 -5,4 -11,7 -16,10 -6,2 -12,3 -18,2zm27 -214c1,-5 4,-9 8,-12 5,-3 9,-5 13,-5 5,0 9,2 11,5 2,3 2,7 1,12 -2,5 -5,9 -9,12 -4,3 -9,5 -13,5 -5,0 -8,-2 -10,-5 -3,-3 -3,-7 -1,-12zm269 61c1,1 2,2 1,3 -5,8 -11,17 -18,28 -7,10 -14,21 -22,32 -9,11 -17,22 -26,32 -10,10 -19,19 -29,27 -12,8 -24,13 -35,15 -12,1 -22,0 -31,-5 -8,-5 -15,-13 -20,-24 -6,-11 -8,-24 -7,-40 1,-16 5,-32 11,-50 7,-17 15,-33 25,-47 11,-15 22,-26 35,-35 13,-10 27,-14 41,-13 4,1 7,1 10,3 3,1 5,3 7,5 2,4 3,8 1,12 0,0 0,0 0,0 -1,2 -2,4 -3,5 -2,1 -3,1 -5,1 -3,0 -5,-1 -6,-2 -2,-2 -2,-4 -2,-6 0,-2 0,-4 2,-6 1,-2 3,-3 6,-3 1,0 1,1 2,1 -2,-2 -3,-3 -5,-3 -2,-1 -4,-1 -6,0 -6,0 -13,5 -21,15 -8,9 -16,21 -24,35 -8,14 -16,29 -22,46 -7,16 -12,32 -15,46 -3,15 -4,28 -3,38 2,11 7,17 16,20 7,2 14,2 22,-1 8,-3 15,-7 24,-12 9,-7 19,-16 29,-27 9,-10 18,-21 27,-33 8,-11 15,-22 22,-32 7,-10 12,-18 16,-24 1,-1 2,-2 3,-1zm212 0c2,1 2,1 2,3 0,0 -1,1 -1,3 -1,2 -2,6 -4,11 -1,5 -4,11 -7,20 -3,8 -7,19 -12,31 -6,16 -12,29 -18,41 -5,12 -11,22 -16,31 -2,3 -4,7 -7,11 -3,4 -6,7 -9,10 -4,4 -7,7 -11,9 -4,2 -8,4 -11,4 -7,0 -11,-1 -15,-4 -4,-2 -6,-5 -8,-8 -2,-4 -4,-8 -5,-12 -1,-5 -2,-9 -2,-14 -1,-5 -2,-10 -3,-15 -1,-6 -3,-10 -6,-14 -3,-6 -7,-9 -12,-10 -5,-2 -10,-3 -15,-4l-3 0c-1,0 -2,0 -2,-2 0,-1 1,-2 2,-2l3 0c10,-1 19,-4 27,-11 8,-7 15,-15 20,-23 4,-5 6,-12 9,-20 2,-8 1,-16 -2,-25 -2,-6 -5,-9 -8,-10 -3,-1 -7,-1 -11,1 -3,1 -7,4 -12,8 -4,3 -8,7 -12,11 -11,12 -22,24 -32,38 -10,15 -21,33 -31,54 -1,2 -2,3 -2,4 -2,4 -6,7 -12,9 -7,2 -14,2 -24,-2 0,0 1,-5 4,-15 2,-10 6,-24 10,-40 5,-17 10,-35 16,-56 6,-21 13,-42 19,-63 8,-25 16,-47 23,-67 7,-19 14,-36 20,-49 17,-36 31,-53 42,-50 9,2 14,8 16,17 2,9 1,22 -3,38 -4,16 -10,34 -19,53 -8,18 -17,34 -26,48 -9,13 -18,23 -25,29 0,0 -1,0 -1,0 -4,12 -7,24 -11,36 -3,12 -6,24 -9,35 -3,11 -5,21 -8,31 -2,9 -4,17 -6,24 10,-17 19,-32 27,-44 9,-12 18,-23 28,-33 20,-19 38,-29 53,-28 12,1 20,7 25,19 6,15 4,29 -6,42 -4,5 -8,10 -13,14 -6,5 -11,8 -17,12 -5,3 -11,6 -17,9 -6,2 -11,4 -16,6 12,1 22,7 29,17 4,5 7,11 9,16 3,6 5,12 7,17 6,17 11,25 16,24 5,-2 13,-11 23,-27 5,-9 10,-19 16,-31 6,-11 12,-25 18,-40 5,-13 9,-23 12,-32 3,-8 6,-15 7,-20 2,-4 3,-8 3,-10 1,-2 1,-3 1,-3 1,-2 2,-3 3,-2zm-126 -111c9,-19 15,-36 19,-51 3,-16 4,-28 2,-37 0,-1 0,-2 -1,-3 -9,11 -19,30 -30,58 -11,27 -23,62 -36,105 6,-6 14,-16 23,-29 8,-13 16,-27 23,-43z"/>
  </g>
 </g>
</svg>
