<svg xmlns="http://www.w3.org/2000/svg" width="34" height="31" viewBox="0 0 34 31">
  <path id="Icon_awesome-search" data-name="Icon awesome-search" d="M33.538,26.8l-6.621-6.036a1.675,1.675,0,0,0-1.129-.424H24.7a11.846,11.846,0,0,0,2.922-7.749C27.627,5.636,21.444,0,13.814,0S0,5.636,0,12.593,6.183,25.185,13.814,25.185a14.615,14.615,0,0,0,8.5-2.664v.987a1.389,1.389,0,0,0,.465,1.029L29.4,30.573a1.7,1.7,0,0,0,2.251,0l1.879-1.713A1.37,1.37,0,0,0,33.538,26.8Zm-19.724-6.46c-4.7,0-8.5-3.463-8.5-7.749s3.8-7.749,8.5-7.749,8.5,3.463,8.5,7.749S18.515,20.342,13.814,20.342Z" fill="#ae3336"/>
</svg>
